<svg width="14" height="22" viewBox="120 84 110 170" fill="none" xmlns="http://www.w3.org/2000/svg">
  <g transform="matrix(1, 0, 0, 1, 104, 52)">
    <g fill="#5CE1E6" fill-opacity="1">
      <g transform="translate(128.504221, 35.644492)">
        <path d="M -87.875 13.515625 L -110.78125 96.5625 L -119.75 96.5625 L -91.46875 0 L -83.046875 0 L -62.21875 82.21875 L -39.453125 0 L -30.90625 0 L -6.203125 96.5625 L -14.90625 96.5625 L -35.875 13.9375 L -58.625 96.5625 L -66.359375 96.5625 Z M -87.875 13.515625"/>
      </g>
    </g>
  </g>
  <g transform="matrix(1, 0, 0, 1, 107, 123)">
    <g fill="#FF6DA8" fill-opacity="1">
      <g transform="translate(0.484973, 129.353891)">
        <path d="M 87.875 -13.515625 L 110.78125 -96.5625 L 119.75 -96.5625 L 91.46875 0 L 83.046875 0 L 62.21875 -82.21875 L 39.453125 0 L 30.90625 0 L 6.203125 -96.5625 L 14.90625 -96.5625 L 35.875 -13.9375 L 58.625 -96.5625 L 66.359375 -96.5625 Z M 87.875 -13.515625"/>
      </g>
    </g>
  </g>
</svg>
