<svg width="80" height="80" viewBox="0 0 80 80" fill="none" xmlns="http://www.w3.org/2000/svg">
  <style>
    .pulse { animation: pulse 2.4s ease-in-out infinite; transform-origin: 40px 40px; }
    .wave { animation: ring 1.8s ease-in-out infinite; transform-origin: 53px 27px; }
    .wave2 { animation-delay: .22s; }
    @keyframes pulse {
      0%, 100% { transform: scale(.96); opacity: .82; }
      50% { transform: scale(1.04); opacity: 1; }
    }
    @keyframes ring {
      0%, 100% { opacity: .25; transform: scale(.92); }
      50% { opacity: 1; transform: scale(1.04); }
    }
  </style>
  <g class="pulse" stroke="#FFFFFF" stroke-width="2.8" stroke-linecap="round" stroke-linejoin="round">
    <path d="M30.5 24.5C31.6 24.7 32.5 25.5 33 26.5L34.8 29.6C35.4 30.7 35.9 31.6 36.2 32.4C36.6 33.2 36.8 34 36.7 34.9C36.6 35.8 36.2 36.6 35.7 37.4C35.2 38 34.5 38.9 33.6 39.9L31.1 42.8C30.7 43.3 30.5 43.6 30.5 43.9C30.5 44.2 30.7 44.5 31.1 45.1C34.2 49.8 38.4 54 43.1 57.1C43.7 57.5 44 57.7 44.3 57.7C44.6 57.7 44.9 57.5 45.4 57.1L48.3 54.6C49.3 53.7 50.2 53 50.8 52.5C51.6 52 52.4 51.6 53.3 51.5C54.2 51.4 55 51.6 55.8 52C56.6 52.3 57.5 52.8 58.6 53.4L61.7 55.2C62.7 55.7 63.5 56.6 63.7 57.7C63.9 58.8 63.6 59.9 62.8 60.8C60.1 64.1 55.8 66.2 51.2 65.3C48.4 64.7 45.7 63.7 42.4 61.8C35.8 58 29.9 52.1 26.1 45.5C24.2 42.2 23.2 39.5 22.6 36.7C21.7 32.1 23.8 27.8 27.1 25.1C28 24.3 29.1 24 30.2 24.2L30.5 24.5Z"/>
  </g>
  <path class="wave" d="M49 22C51.4 22.7 53.3 24.6 54 27" stroke="#FFFFFF" stroke-width="2.8" stroke-linecap="round"/>
  <path class="wave wave2" d="M48 17C52 18.1 55.1 21.2 56.2 25.2" stroke="#FFFFFF" stroke-width="2.8" stroke-linecap="round"/>
</svg>
