<svg xmlns="http://www.w3.org/2000/svg" xmlns:xlink="http://www.w3.org/1999/xlink" width="454" zoomAndPan="magnify" viewBox="0 0 340.5 340.499998" height="454" preserveAspectRatio="xMidYMid meet" version="1.0"><defs><g/><clipPath id="dd792734ed"><path d="M 0 0 L 340 0 L 340 340 L 0 340 Z M 0 0 " clip-rule="nonzero"/></clipPath><clipPath id="ce7319e42f"><rect x="0" width="129" y="0" height="165"/></clipPath><clipPath id="a4d3d5d3ec"><rect x="0" width="129" y="0" height="165"/></clipPath><clipPath id="e761cc41e7"><path d="M 26.050781 159.941406 L 313.953125 159.941406 L 313.953125 180.058594 L 26.050781 180.058594 Z M 26.050781 159.941406 " clip-rule="nonzero"/></clipPath><clipPath id="5c184dfa66"><path d="M 0.0507812 0.941406 L 287.953125 0.941406 L 287.953125 21.058594 L 0.0507812 21.058594 Z M 0.0507812 0.941406 " clip-rule="nonzero"/></clipPath><clipPath id="ae513739a5"><rect x="0" width="288" y="0" height="22"/></clipPath><clipPath id="c5bdc85ddd"><rect x="0" width="179" y="0" height="17"/></clipPath><clipPath id="aec0f41a9e"><rect x="0" width="340" y="0" height="340"/></clipPath></defs><g transform="matrix(1, 0, 0, 1, 0, -0.000000000000005857)"><g clip-path="url(#aec0f41a9e)"><g transform="matrix(1, 0, 0, 1, 104, 52)"><g clip-path="url(#ce7319e42f)"><g fill="#5ce1e6" fill-opacity="1"><g transform="translate(128.504221, 35.644492)"><g><path d="M -87.875 13.515625 L -110.78125 96.5625 L -119.75 96.5625 L -91.46875 0 L -83.046875 0 L -62.21875 82.21875 L -39.453125 0 L -30.90625 0 L -6.203125 96.5625 L -14.90625 96.5625 L -35.875 13.9375 L -58.625 96.5625 L -66.359375 96.5625 Z M -87.875 13.515625 "/></g></g></g></g></g><g transform="matrix(1, 0, 0, 1, 107, 123)"><g clip-path="url(#a4d3d5d3ec)"><g fill="#ff6da8" fill-opacity="1"><g transform="translate(0.484973, 129.353891)"><g><path d="M 87.875 -13.515625 L 110.78125 -96.5625 L 119.75 -96.5625 L 91.46875 0 L 83.046875 0 L 62.21875 -82.21875 L 39.453125 0 L 30.90625 0 L 6.203125 -96.5625 L 14.90625 -96.5625 L 35.875 -13.9375 L 58.625 -96.5625 L 66.359375 -96.5625 Z M 87.875 -13.515625 "/></g></g></g></g></g><g clip-path="url(#e761cc41e7)"><g transform="matrix(1, 0, 0, 1, 26, 159)"><g clip-path="url(#ae513739a5)"><g clip-path="url(#5c184dfa66)"><path fill="#ffffff" d="M 0.0507812 0.941406 L 287.953125 0.941406 L 287.953125 21.058594 L 0.0507812 21.058594 Z M 0.0507812 0.941406 " fill-opacity="1" fill-rule="nonzero"/></g></g></g></g><g transform="matrix(1, 0, 0, 1, 83, 161)"><g clip-path="url(#c5bdc85ddd)"><g fill="#190812" fill-opacity="1"><g transform="translate(1.597877, 13.269071)"><g><path d="M 10.1875 0.015625 C 9.375 0.015625 8.96875 -0.078125 8.96875 -0.265625 L 8.6875 -5.703125 L 7.03125 -0.1875 C 7 -0.0820312 6.691406 -0.03125 6.109375 -0.03125 C 5.523438 -0.03125 5.226562 -0.078125 5.21875 -0.171875 L 3.5 -5.75 L 3.3125 -0.34375 C 3.300781 -0.207031 3.128906 -0.113281 2.796875 -0.0625 C 2.460938 -0.0078125 2.179688 0.015625 1.953125 0.015625 C 1.734375 0.015625 1.519531 0 1.3125 -0.03125 C 0.882812 -0.09375 0.671875 -0.203125 0.671875 -0.359375 L 0.984375 -9.1875 C 0.984375 -9.40625 1.535156 -9.515625 2.640625 -9.515625 C 2.972656 -9.515625 3.375 -9.488281 3.84375 -9.4375 C 4.3125 -9.394531 4.570312 -9.300781 4.625 -9.15625 L 6.15625 -4.875 L 7.484375 -9.171875 C 7.566406 -9.398438 8.191406 -9.515625 9.359375 -9.515625 C 9.691406 -9.515625 10.085938 -9.488281 10.546875 -9.4375 C 11.015625 -9.394531 11.25 -9.304688 11.25 -9.171875 L 11.65625 -0.265625 C 11.65625 -0.171875 11.476562 -0.0976562 11.125 -0.046875 C 10.769531 -0.00390625 10.457031 0.015625 10.1875 0.015625 Z M 10.1875 0.015625 "/></g></g></g><g fill="#190812" fill-opacity="1"><g transform="translate(19.85103, 13.269071)"><g><path d="M 7.0625 0.03125 C 6.269531 0.03125 5.84375 -0.0976562 5.78125 -0.359375 L 5.34375 -2.109375 L 3.171875 -2.109375 L 2.78125 -0.421875 C 2.726562 -0.140625 2.296875 0 1.484375 0 C 1.046875 0 0.722656 -0.0234375 0.515625 -0.078125 C 0.304688 -0.128906 0.203125 -0.164062 0.203125 -0.1875 L 2.609375 -9.375 C 2.609375 -9.445312 3.226562 -9.484375 4.46875 -9.484375 C 5.707031 -9.484375 6.328125 -9.445312 6.328125 -9.375 L 8.671875 -0.171875 C 8.671875 -0.109375 8.460938 -0.0546875 8.046875 -0.015625 C 7.628906 0.015625 7.300781 0.03125 7.0625 0.03125 Z M 3.515625 -3.828125 L 4.9375 -3.828125 L 4.328125 -6.640625 L 4.25 -6.640625 Z M 3.515625 -3.828125 "/></g></g></g><g fill="#190812" fill-opacity="1"><g transform="translate(34.681711, 13.269071)"><g><path d="M 4.765625 -0.21875 C 4.765625 -0.0390625 4.316406 0.046875 3.421875 0.046875 C 2.523438 0.046875 2.078125 -0.0390625 2.078125 -0.21875 L 2.078125 -7.03125 L 0.453125 -7.03125 C 0.296875 -7.03125 0.1875 -7.238281 0.125 -7.65625 C 0.09375 -7.851562 0.078125 -8.054688 0.078125 -8.265625 C 0.078125 -8.472656 0.09375 -8.675781 0.125 -8.875 C 0.1875 -9.289062 0.296875 -9.5 0.453125 -9.5 L 6.359375 -9.5 C 6.503906 -9.5 6.613281 -9.289062 6.6875 -8.875 C 6.707031 -8.675781 6.71875 -8.472656 6.71875 -8.265625 C 6.71875 -8.054688 6.707031 -7.851562 6.6875 -7.65625 C 6.613281 -7.238281 6.503906 -7.03125 6.359375 -7.03125 L 4.765625 -7.03125 Z M 4.765625 -0.21875 "/></g></g></g><g fill="#190812" fill-opacity="1"><g transform="translate(47.434459, 13.269071)"><g><path d="M 8.0625 -0.234375 C 8.0625 -0.078125 7.601562 0 6.6875 0 C 5.78125 0 5.328125 -0.078125 5.328125 -0.234375 L 5.328125 -3.359375 L 3.421875 -3.359375 L 3.421875 -0.234375 C 3.421875 -0.078125 2.960938 0 2.046875 0 C 1.128906 0 0.671875 -0.078125 0.671875 -0.234375 L 0.671875 -9.234375 C 0.671875 -9.421875 1.128906 -9.515625 2.046875 -9.515625 C 2.960938 -9.515625 3.421875 -9.421875 3.421875 -9.234375 L 3.421875 -6.046875 L 5.328125 -6.046875 L 5.328125 -9.203125 C 5.328125 -9.328125 5.550781 -9.421875 6 -9.484375 C 6.238281 -9.492188 6.46875 -9.5 6.6875 -9.5 L 7.390625 -9.484375 C 7.835938 -9.421875 8.0625 -9.328125 8.0625 -9.203125 Z M 8.0625 -0.234375 "/></g></g></g><g fill="#190812" fill-opacity="1"><g transform="translate(62.115743, 13.269071)"><g><path d="M 3.265625 -0.1875 C 3.265625 -0.0390625 2.835938 0.03125 1.984375 0.03125 C 1.109375 0.03125 0.671875 -0.0351562 0.671875 -0.171875 L 0.671875 -9.03125 C 0.671875 -9.34375 0.84375 -9.5 1.1875 -9.5 L 3.78125 -9.5 C 6.15625 -9.5 7.34375 -8.570312 7.34375 -6.71875 C 7.34375 -6.15625 7.234375 -5.644531 7.015625 -5.1875 C 6.796875 -4.738281 6.488281 -4.375 6.09375 -4.09375 L 7.8125 -1.25 C 7.738281 -1.03125 7.5 -0.78125 7.09375 -0.5 C 6.550781 -0.113281 6.101562 0.078125 5.75 0.078125 C 5.40625 0.078125 5.144531 -0.046875 4.96875 -0.296875 L 3.6875 -3.265625 L 3.265625 -3.265625 Z M 3.265625 -7.09375 L 3.265625 -5.0625 L 3.34375 -5.0625 C 4.195312 -5.0625 4.625 -5.421875 4.625 -6.140625 C 4.625 -6.460938 4.539062 -6.703125 4.375 -6.859375 C 4.207031 -7.015625 3.9375 -7.09375 3.5625 -7.09375 Z M 3.265625 -7.09375 "/></g></g></g><g fill="#190812" fill-opacity="1"><g transform="translate(76.063633, 13.269071)"><g><path d="M 5.125 -9.234375 C 5.125 -9.410156 5.613281 -9.5 6.59375 -9.5 C 7.570312 -9.5 8.0625 -9.410156 8.0625 -9.234375 L 8.0625 -3 C 8.0625 -2.070312 7.726562 -1.316406 7.0625 -0.734375 C 6.40625 -0.148438 5.492188 0.140625 4.328125 0.140625 C 3.171875 0.140625 2.226562 -0.160156 1.5 -0.765625 C 0.769531 -1.367188 0.40625 -2.179688 0.40625 -3.203125 L 0.40625 -9.21875 C 0.40625 -9.394531 0.894531 -9.484375 1.875 -9.484375 C 2.863281 -9.484375 3.359375 -9.394531 3.359375 -9.21875 L 3.359375 -3.09375 C 3.359375 -2.914062 3.453125 -2.769531 3.640625 -2.65625 C 3.835938 -2.550781 4.046875 -2.5 4.265625 -2.5 C 4.484375 -2.5 4.679688 -2.546875 4.859375 -2.640625 C 5.035156 -2.742188 5.125 -2.894531 5.125 -3.09375 Z M 5.125 -9.234375 "/></g></g></g><g fill="#190812" fill-opacity="1"><g transform="translate(90.527617, 13.269071)"><g><path d="M 3.390625 -0.1875 C 3.390625 -0.0507812 2.96875 0.015625 2.125 0.015625 L 1.359375 -0.03125 C 0.898438 -0.0625 0.671875 -0.125 0.671875 -0.21875 L 0.671875 -9.328125 C 0.671875 -9.484375 1.125 -9.5625 2.03125 -9.5625 C 2.9375 -9.5625 3.390625 -9.484375 3.390625 -9.328125 L 3.390625 -5.859375 L 5.046875 -9.328125 C 5.109375 -9.453125 5.472656 -9.515625 6.140625 -9.515625 C 7.335938 -9.515625 7.96875 -9.410156 8.03125 -9.203125 C 8.03125 -9.179688 8.03125 -9.164062 8.03125 -9.15625 L 5.65625 -4.890625 L 8.40625 -1.09375 C 8.40625 -1.082031 8.316406 -1.007812 8.140625 -0.875 C 7.722656 -0.507812 7.238281 -0.222656 6.6875 -0.015625 C 6.507812 0.046875 6.335938 0.078125 6.171875 0.078125 L 5.84375 0.046875 C 5.550781 -0.015625 5.320312 -0.195312 5.15625 -0.5 L 3.609375 -3.46875 L 3.390625 -3.46875 Z M 3.390625 -0.1875 "/></g></g></g><g fill="#190812" fill-opacity="1"><g transform="translate(104.882942, 13.269071)"><g><path d="M 7.0625 0.03125 C 6.269531 0.03125 5.84375 -0.0976562 5.78125 -0.359375 L 5.34375 -2.109375 L 3.171875 -2.109375 L 2.78125 -0.421875 C 2.726562 -0.140625 2.296875 0 1.484375 0 C 1.046875 0 0.722656 -0.0234375 0.515625 -0.078125 C 0.304688 -0.128906 0.203125 -0.164062 0.203125 -0.1875 L 2.609375 -9.375 C 2.609375 -9.445312 3.226562 -9.484375 4.46875 -9.484375 C 5.707031 -9.484375 6.328125 -9.445312 6.328125 -9.375 L 8.671875 -0.171875 C 8.671875 -0.109375 8.460938 -0.0546875 8.046875 -0.015625 C 7.628906 0.015625 7.300781 0.03125 7.0625 0.03125 Z M 3.515625 -3.828125 L 4.9375 -3.828125 L 4.328125 -6.640625 L 4.25 -6.640625 Z M 3.515625 -3.828125 "/></g></g></g><g fill="#190812" fill-opacity="1"><g transform="translate(119.713623, 13.269071)"><g><path d="M 0.546875 -0.796875 L 0.546875 -9.25 C 0.546875 -9.4375 1.003906 -9.53125 1.921875 -9.53125 C 2.835938 -9.53125 3.296875 -9.4375 3.296875 -9.25 L 3.296875 -2.59375 L 5.390625 -2.59375 C 5.554688 -2.59375 5.671875 -2.378906 5.734375 -1.953125 C 5.753906 -1.742188 5.765625 -1.53125 5.765625 -1.3125 C 5.765625 -1.09375 5.753906 -0.875 5.734375 -0.65625 C 5.660156 -0.21875 5.539062 0 5.375 0 L 1.1875 0 C 0.988281 0 0.832031 -0.078125 0.71875 -0.234375 C 0.601562 -0.398438 0.546875 -0.585938 0.546875 -0.796875 Z M 0.546875 -0.796875 "/></g></g></g><g fill="#190812" fill-opacity="1"><g transform="translate(131.556415, 13.269071)"><g><path d="M 1.859375 0.03125 C 1.035156 0.03125 0.625 -0.0625 0.625 -0.25 L 0.625 -9.046875 C 0.625 -9.347656 0.765625 -9.5 1.046875 -9.5 L 3.4375 -9.5 C 4.769531 -9.5 5.734375 -9.222656 6.328125 -8.671875 C 6.921875 -8.117188 7.21875 -7.316406 7.21875 -6.265625 C 7.21875 -5.398438 6.9375 -4.609375 6.375 -3.890625 C 6.09375 -3.523438 5.679688 -3.234375 5.140625 -3.015625 C 4.597656 -2.796875 3.96875 -2.6875 3.25 -2.6875 L 3.25 -0.265625 C 3.25 -0.148438 3.078125 -0.0703125 2.734375 -0.03125 C 2.398438 0.0078125 2.109375 0.03125 1.859375 0.03125 Z M 3.25 -7.140625 L 3.25 -5 L 3.421875 -5 C 3.734375 -5 4 -5.097656 4.21875 -5.296875 C 4.4375 -5.492188 4.546875 -5.773438 4.546875 -6.140625 C 4.546875 -6.503906 4.46875 -6.757812 4.3125 -6.90625 C 4.164062 -7.0625 3.90625 -7.140625 3.53125 -7.140625 Z M 3.25 -7.140625 "/></g></g></g><g fill="#190812" fill-opacity="1"><g transform="translate(145.232676, 13.269071)"><g><path d="M 7.0625 0.03125 C 6.269531 0.03125 5.84375 -0.0976562 5.78125 -0.359375 L 5.34375 -2.109375 L 3.171875 -2.109375 L 2.78125 -0.421875 C 2.726562 -0.140625 2.296875 0 1.484375 0 C 1.046875 0 0.722656 -0.0234375 0.515625 -0.078125 C 0.304688 -0.128906 0.203125 -0.164062 0.203125 -0.1875 L 2.609375 -9.375 C 2.609375 -9.445312 3.226562 -9.484375 4.46875 -9.484375 C 5.707031 -9.484375 6.328125 -9.445312 6.328125 -9.375 L 8.671875 -0.171875 C 8.671875 -0.109375 8.460938 -0.0546875 8.046875 -0.015625 C 7.628906 0.015625 7.300781 0.03125 7.0625 0.03125 Z M 3.515625 -3.828125 L 4.9375 -3.828125 L 4.328125 -6.640625 L 4.25 -6.640625 Z M 3.515625 -3.828125 "/></g></g></g><g fill="#190812" fill-opacity="1"><g transform="translate(160.063357, 13.269071)"><g><path d="M 10.1875 0.015625 C 9.375 0.015625 8.96875 -0.078125 8.96875 -0.265625 L 8.6875 -5.703125 L 7.03125 -0.1875 C 7 -0.0820312 6.691406 -0.03125 6.109375 -0.03125 C 5.523438 -0.03125 5.226562 -0.078125 5.21875 -0.171875 L 3.5 -5.75 L 3.3125 -0.34375 C 3.300781 -0.207031 3.128906 -0.113281 2.796875 -0.0625 C 2.460938 -0.0078125 2.179688 0.015625 1.953125 0.015625 C 1.734375 0.015625 1.519531 0 1.3125 -0.03125 C 0.882812 -0.09375 0.671875 -0.203125 0.671875 -0.359375 L 0.984375 -9.1875 C 0.984375 -9.40625 1.535156 -9.515625 2.640625 -9.515625 C 2.972656 -9.515625 3.375 -9.488281 3.84375 -9.4375 C 4.3125 -9.394531 4.570312 -9.300781 4.625 -9.15625 L 6.15625 -4.875 L 7.484375 -9.171875 C 7.566406 -9.398438 8.191406 -9.515625 9.359375 -9.515625 C 9.691406 -9.515625 10.085938 -9.488281 10.546875 -9.4375 C 11.015625 -9.394531 11.25 -9.304688 11.25 -9.171875 L 11.65625 -0.265625 C 11.65625 -0.171875 11.476562 -0.0976562 11.125 -0.046875 C 10.769531 -0.00390625 10.457031 0.015625 10.1875 0.015625 Z M 10.1875 0.015625 "/></g></g></g></g></g></g></g></svg>